<?xml version="1.0" standalone="no"?>
<!DOCTYPE svg PUBLIC "-//W3C//DTD SVG 20010904//EN"
 "http://www.w3.org/TR/2001/REC-SVG-20010904/DTD/svg10.dtd">
<svg version="1.0" xmlns="http://www.w3.org/2000/svg"
 width="1200.000000pt" height="955.000000pt" viewBox="0 0 1200.000000 955.000000"
 preserveAspectRatio="xMidYMid meet">

<g transform="translate(0.000000,955.000000) scale(0.100000,-0.100000)"
fill="#000000" stroke="none">
<path d="M3515 9513 c-233 -90 -413 -174 -514 -242 -111 -74 -128 -87 -227
-173 -115 -99 -187 -175 -285 -303 -128 -167 -169 -203 -169 -146 0 10 -7 24
-15 31 -19 16 -49 -3 -117 -74 -151 -156 -228 -283 -248 -409 -11 -72 -36
-211 -46 -255 -8 -38 -22 -16 -40 66 -15 66 -16 89 -6 158 18 122 17 134 -13
134 -39 0 -138 -54 -184 -102 -51 -51 -97 -125 -156 -250 -72 -153 -89 -217
-90 -338 0 -102 1 -106 33 -154 17 -28 32 -59 32 -70 0 -10 -15 -42 -32 -70
l-33 -51 0 -155 c1 -145 3 -161 29 -233 15 -42 26 -84 23 -91 -3 -8 -37 -35
-75 -60 -71 -46 -87 -70 -70 -100 16 -29 0 -64 -57 -126 -81 -88 -155 -265
-155 -370 0 -57 12 -70 66 -70 24 0 45 -4 49 -9 3 -6 -14 -52 -39 -103 -57
-120 -94 -269 -108 -436 -17 -192 -11 -197 142 -127 56 26 104 44 108 41 11
-11 -18 -98 -65 -195 -44 -92 -51 -119 -67 -279 -6 -64 2 -70 71 -50 26 7 66
11 88 8 49 -6 49 -23 0 -90 l-33 -45 -3 -335 -3 -335 31 -80 c43 -113 95 -213
163 -315 77 -113 133 -219 158 -296 11 -33 29 -79 41 -102 23 -44 108 -132
128 -132 21 0 33 36 33 99 0 107 10 89 101 -178 37 -107 61 -141 104 -144 28
-2 30 0 36 49 8 66 21 91 37 71 6 -7 14 -31 18 -53 22 -144 99 -384 164 -513
47 -95 72 -178 68 -228 -4 -47 -15 -48 -92 -10 -141 69 -237 153 -331 287 -90
128 -201 268 -260 325 -90 88 -236 108 -430 60 -143 -35 -222 -79 -340 -186
-255 -232 -251 -230 -325 -166 -65 55 -136 66 -237 36 -37 -12 -42 -22 -52
-114 -8 -67 -45 -149 -88 -194 -20 -20 -121 -177 -141 -218 -16 -34 -16 -35 3
-50 19 -13 68 -14 205 -2 8 0 44 10 79 21 63 20 63 20 90 1 34 -26 33 -46 -4
-50 -108 -11 -115 -14 -168 -62 -53 -49 -103 -71 -164 -71 -66 0 -149 -108
-95 -124 61 -18 157 -27 222 -22 103 9 353 43 480 66 192 34 272 39 745 50
854 19 830 18 1100 50 88 10 225 21 305 24 148 5 196 14 206 41 4 8 -12 52
-34 97 -46 94 -60 138 -44 138 6 0 46 -33 89 -73 213 -198 429 -340 565 -372
78 -17 276 -23 428 -11 257 19 318 21 380 15 36 -4 110 -10 165 -14 193 -13
181 -12 605 -61 25 -2 54 -7 65 -9 11 -2 79 -11 150 -20 137 -16 250 -38 324
-62 110 -35 240 -64 315 -69 71 -5 94 -2 186 25 86 25 123 31 203 31 73 0 124
7 200 26 96 25 111 26 262 20 346 -14 634 -63 826 -143 93 -38 95 -38 229 -38
119 0 140 3 176 22 64 34 69 45 66 142 -2 62 -10 102 -28 146 -13 34 -24 68
-24 76 0 24 50 46 133 59 153 25 290 -5 452 -98 114 -65 252 -158 309 -208 29
-25 87 -59 135 -80 89 -37 121 -60 281 -194 255 -215 293 -232 361 -160 21 22
44 40 51 40 8 0 41 -28 73 -63 35 -36 86 -76 122 -95 34 -18 88 -53 121 -77
33 -25 66 -45 74 -45 7 0 22 19 33 42 11 23 25 44 31 45 6 2 34 -12 61 -31 55
-38 391 -209 516 -262 43 -19 94 -46 113 -60 34 -27 97 -124 124 -194 16 -41
45 -73 246 -275 121 -120 160 -154 194 -164 40 -12 42 -12 80 23 42 38 56 38
112 2 61 -38 151 -22 164 29 10 39 -13 173 -40 230 -13 30 -65 98 -122 161
-55 60 -117 132 -138 159 -22 28 -47 57 -56 65 -69 64 -291 377 -395 555 -131
224 -245 360 -440 521 -87 71 -143 113 -370 272 -38 27 -110 73 -160 102 -49
29 -117 72 -150 95 -33 23 -118 78 -190 123 -307 192 -334 245 -179 346 119
77 207 179 275 318 53 108 51 153 -9 250 -71 115 -83 147 -154 397 -38 135
-81 269 -96 299 -18 36 -49 75 -95 116 -68 60 -137 149 -157 202 -9 22 -6 34
15 70 15 25 43 55 63 68 20 13 54 42 76 66 35 39 38 46 32 84 -9 51 -49 121
-82 143 -16 10 -44 16 -75 15 -59 -1 -299 -61 -389 -98 -210 -84 -297 -100
-376 -68 -22 8 -100 44 -175 80 -105 50 -153 68 -210 76 -76 10 -248 5 -355
-12 -32 -5 -79 -12 -104 -15 -53 -7 -96 -14 -130 -20 -14 -2 -54 -7 -90 -11
-79 -7 -134 -25 -224 -72 -109 -57 -111 -89 -6 -127 25 -9 54 -21 65 -26 l20
-10 -20 6 c-11 4 -67 9 -125 12 l-105 6 -82 -42 c-46 -22 -96 -41 -113 -41
-51 0 -125 46 -216 133 -142 136 -716 518 -741 493 -3 -3 6 -32 20 -63 33 -76
40 -100 29 -107 -5 -3 -34 1 -66 8 -140 33 -334 224 -636 626 -35 47 -68 87
-72 88 -4 2 -8 7 -8 12 0 15 -71 115 -113 158 -42 44 -104 88 -112 80 -3 -2
-6 -15 -8 -28 -5 -34 -21 -35 -64 -4 -39 28 -103 91 -103 100 0 14 -192 243
-216 259 -31 20 -108 32 -117 18 -4 -5 5 -31 18 -56 31 -57 31 -65 1 -102 -23
-29 -25 -29 -54 -15 -17 8 -77 58 -134 111 -178 166 -253 221 -421 306 -50 26
-94 47 -97 48 -3 0 -36 12 -75 26 -167 62 -393 96 -526 79 -99 -12 -188 -28
-219 -39 -14 -5 -52 -17 -85 -26 -33 -10 -95 -32 -138 -49 -67 -26 -79 -28
-87 -16 -33 51 26 265 91 334 16 17 29 34 29 38 0 7 88 73 99 74 3 0 33 6 66
13 33 8 65 14 72 15 53 8 114 145 66 147 -27 1 -66 9 -71 14 -28 27 265 156
382 168 63 7 163 -16 241 -54 51 -25 71 -42 99 -85 20 -30 42 -54 50 -54 13 0
36 40 51 87 7 24 -31 88 -74 127 -11 11 -21 25 -21 31 0 12 57 45 78 45 5 0
16 7 23 16 12 14 6 23 -49 73 -71 64 -126 166 -120 223 2 28 10 37 48 56 42
22 54 23 175 19 266 -10 378 -54 546 -215 148 -142 238 -273 313 -454 38 -92
39 -99 57 -273 19 -181 53 -276 154 -420 86 -123 193 -221 290 -265 90 -41
280 -86 321 -76 33 9 31 20 -16 96 -64 105 -56 162 58 385 113 223 105 200
105 310 -1 164 -49 325 -128 430 -44 58 -63 100 -52 112 3 3 46 5 96 4 85 -1
90 0 110 25 32 41 43 99 43 225 -2 293 -81 489 -281 702 -25 26 -62 73 -84
105 -36 54 -38 57 -18 60 12 2 43 -3 69 -12 78 -25 121 -28 151 -10 36 21 71
74 71 107 0 57 -149 164 -274 197 -69 18 -78 33 -64 109 7 38 4 50 -17 87 -26
44 -87 99 -139 124 -24 12 -32 22 -34 50 -5 48 -25 66 -85 80 -140 31 -223 54
-234 63 -10 7 -8 15 7 34 11 14 20 34 20 44 0 28 -75 85 -159 121 l-76 33
-180 -1 c-186 0 -229 -7 -378 -60 -115 -40 -340 -175 -542 -325 -86 -64 -95
-60 -37 16 47 63 147 157 188 178 42 22 134 106 134 123 0 8 -14 21 -32 28
-42 18 -248 16 -270 -1 -26 -22 -157 -72 -163 -62 -4 5 5 24 18 41 35 47 59
97 52 108 -9 15 -94 10 -140 -7z m274 -692 c8 -5 19 -24 25 -43 10 -28 16 -33
40 -31 16 1 36 8 45 16 26 23 99 47 154 52 29 3 64 7 79 11 22 4 134 -5 253
-21 190 -25 280 -61 309 -121 32 -67 19 -79 -42 -39 -60 39 -190 74 -293 77
-84 3 -92 1 -109 -19 -10 -13 -26 -23 -35 -23 -13 0 -15 6 -10 29 5 24 2 30
-15 36 -59 19 -202 -30 -295 -100 -33 -25 -90 -43 -115 -38 -9 2 -22 23 -30
46 -9 24 -22 43 -32 45 -22 4 -145 -67 -226 -131 -34 -27 -92 -83 -128 -126
-75 -86 -150 -151 -176 -151 -21 0 -23 33 -8 125 6 34 6 63 1 68 -14 14 -108
-62 -162 -133 -28 -36 -88 -141 -134 -236 -46 -94 -91 -178 -100 -187 -13 -13
-27 -16 -67 -11 l-50 6 7 -56 c7 -53 6 -58 -24 -91 -28 -32 -31 -41 -29 -98 2
-67 -6 -89 -46 -126 l-25 -24 -52 47 c-28 25 -56 43 -61 40 -6 -4 -8 -36 -5
-83 3 -57 12 -93 36 -143 17 -37 31 -77 31 -88 0 -40 -22 -110 -35 -110 -14 0
-76 81 -89 115 -24 62 -24 171 -2 383 12 116 74 292 102 292 14 0 44 -43 44
-63 0 -8 -11 -39 -24 -68 -31 -68 -27 -129 12 -159 24 -20 61 -27 63 -12 0 4
1 57 3 117 3 165 31 215 117 215 55 0 122 92 169 233 13 37 37 90 54 117 36
57 221 248 251 260 11 4 38 7 60 6 45 -1 44 0 31 -88 -15 -106 -5 -102 148 47
150 148 186 175 291 217 80 31 76 30 94 19z m-632 -3972 c93 -35 163 -123 323
-404 12 -22 42 -87 65 -145 24 -58 47 -116 53 -130 5 -14 15 -45 22 -70 7 -25
23 -77 36 -117 29 -86 29 -95 5 -117 -18 -16 -19 -15 -30 30 -9 37 -14 44 -25
35 -8 -7 -17 -28 -21 -49 -12 -61 -15 -363 -4 -412 6 -25 13 -56 15 -70 3 -13
8 -29 13 -35 4 -5 13 -28 20 -50 19 -56 198 -425 264 -542 60 -107 78 -126
150 -168 56 -32 69 -52 61 -94 -11 -53 -69 -36 -144 40 -25 25 -85 79 -133
119 -127 104 -141 126 -162 261 -21 136 -31 166 -84 249 -23 36 -58 99 -78
140 l-36 75 4 160 c2 88 4 275 4 415 0 285 -2 294 -77 445 -62 124 -168 256
-290 361 -59 51 -104 95 -100 99 10 10 89 -4 149 -26z m6187 -729 c77 -29 103
-56 111 -114 10 -65 -1 -109 -38 -158 -36 -47 -138 -112 -202 -129 -22 -5 -48
-12 -57 -15 -57 -17 21 99 118 176 43 33 84 70 92 81 13 19 12 23 -5 40 -27
27 -134 54 -228 58 -69 2 -94 -2 -169 -28 -120 -42 -165 -66 -238 -126 -35
-29 -73 -57 -85 -64 -29 -15 -69 -5 -111 26 -27 20 -31 27 -21 39 26 32 372
189 459 210 122 28 156 32 230 29 58 -2 104 -10 144 -25z m-1983 -90 c46 -6
87 -10 91 -10 16 0 68 -53 68 -69 0 -10 -12 -28 -26 -42 -31 -29 -130 -179
-155 -234 -38 -85 -4 -172 63 -163 16 3 33 -1 40 -9 6 -8 14 -64 18 -125 l6
-111 35 -29 c19 -16 45 -31 59 -34 14 -3 36 -7 48 -10 23 -5 24 -8 16 -52 -4
-26 -8 -72 -8 -102 0 -77 42 -147 161 -270 87 -91 98 -99 163 -119 71 -23 114
-58 108 -90 -2 -9 -25 -23 -51 -33 -44 -16 -51 -17 -85 -3 -20 9 -61 38 -92
64 -31 27 -85 69 -122 95 -78 55 -128 104 -128 126 0 9 -3 19 -6 23 -3 3 -7
27 -9 54 -4 75 -25 197 -35 207 -5 5 -28 19 -51 31 -36 18 -46 30 -65 80 -13
35 -23 83 -24 115 0 66 -4 72 -55 98 -90 46 -106 91 -77 228 20 93 38 137 78
189 36 48 39 77 10 104 -22 21 -31 23 -78 17 -47 -6 -57 -4 -72 13 -10 11 -16
27 -13 35 8 19 66 46 88 40 9 -3 54 -9 100 -14z m2337 -503 c47 -49 48 -150 4
-249 -25 -57 -42 -69 -99 -71 -46 -2 -48 -1 -51 27 -2 17 5 46 18 68 23 41 18
49 -14 19 -22 -19 -107 -51 -138 -51 -36 0 -16 87 26 110 12 6 58 17 102 24
72 11 80 14 93 41 13 27 12 30 -15 52 -28 23 -28 24 -10 38 29 22 59 18 84 -8z
m-2468 -633 c49 -46 128 -169 136 -211 6 -32 -28 -63 -68 -63 -18 0 -40 -5
-48 -10 -12 -8 -9 -15 20 -45 19 -20 60 -53 90 -73 54 -36 301 -161 430 -218
36 -15 67 -31 70 -34 3 -3 21 -17 40 -30 43 -31 164 -139 169 -152 6 -16 -30
-47 -47 -41 -10 4 -49 32 -87 62 -39 31 -102 72 -140 90 -103 51 -105 51 -144
73 -152 86 -220 122 -262 138 -67 27 -152 70 -164 84 -26 30 -107 87 -180 126
-103 56 -137 79 -132 94 7 20 156 37 211 22 34 -8 92 9 100 30 6 16 -17 68
-35 80 -32 19 -46 124 -17 124 5 0 31 -21 58 -46z m1554 -155 c14 -7 32 -28
40 -50 16 -38 57 -68 116 -82 14 -4 52 -31 85 -61 74 -69 108 -80 194 -64 63
12 64 12 87 -16 58 -66 8 -108 -126 -109 -96 0 -131 18 -199 101 -60 72 -92
96 -119 88 -11 -4 -50 -36 -88 -71 -73 -70 -104 -82 -176 -71 -55 9 -92 30
-161 90 -65 58 -104 109 -111 147 -3 22 2 30 33 48 37 20 39 20 55 2 9 -10 22
-36 27 -57 18 -65 46 -101 101 -128 69 -34 105 -33 158 5 l42 31 -5 66 c-4 37
-9 84 -13 105 -6 33 -4 37 14 37 12 0 32 -5 46 -11z m-6961 -385 c18 -9 55
-32 83 -50 48 -32 158 -74 234 -89 l34 -7 -32 -29 c-32 -29 -33 -29 -161 -29
-148 0 -241 22 -291 68 -35 33 -32 62 12 116 34 41 68 47 121 20z"/>
</g>
</svg>
